<svg xmlns="http://www.w3.org/2000/svg" width="36.06" height="35.97" viewBox="0 0 36.06 35.97">
  <defs>
    <style>
      .cls-1 {
        fill: #fff;
        fill-rule: evenodd;
      }
    </style>
  </defs>
  <path class="cls-1" d="M1685.9,2435.04l-7.38,7.53v20.41h-28.24v-24.79l8.84-9.03h17.62l1.7-1.73a1.47,1.47,0,0,1,1.04-.44,1.452,1.452,0,0,1,1.04.44l5.38,5.48a1.53,1.53,0,0,1,.43,1.07A1.489,1.489,0,0,1,1685.9,2435.04Zm-26.9-1.5-4.43,4.52H1659v-4.52Zm1.47-1.37v7.39h-7.25v20.42h22.35v-14.4l-6.71,6.85a1.433,1.433,0,0,1-.95.44l-5.72.34h-0.08a1.452,1.452,0,0,1-1.05-.44,1.512,1.512,0,0,1-.42-1.15l0.33-5.83a1.546,1.546,0,0,1,.43-0.98l12.39-12.64h-13.32Zm3.35,17.93c-0.02-.02-0.02-0.04-0.04-0.06s-0.07-.05-0.1-0.08l-0.01.15Zm0.06-3.56-0.1,1.76a2.659,2.659,0,0,1,1.09.73,2.725,2.725,0,0,1,.56.98l1.74-.11,13.36-13.63-1.12-1.15-12.87,13.13a0.744,0.744,0,0,1-.52.22,0.755,0.755,0,0,1-.52-1.29l12.87-13.12-1.13-1.15Zm15.6-15.92-1.2,1.22,3.3,3.36,1.2-1.22Z" transform="translate(-1650.28 -2427)"/>
</svg>
