<svg xmlns="http://www.w3.org/2000/svg" width="37.28" height="35.93" viewBox="0 0 37.28 35.93">
  <defs>
    <style>
      .cls-1 {
        fill: #173243;
        fill-rule: evenodd;
      }
    </style>
  </defs>
  <path class="cls-1" d="M1338.62,1614.84a1.478,1.478,0,0,1-.87-0.28l-9.74-7.15-9.75,7.15a1.455,1.455,0,0,1-1.73,0,1.5,1.5,0,0,1-.54-1.67l3.72-11.55-9.74-7.15a1.5,1.5,0,0,1-.54-1.66,1.479,1.479,0,0,1,1.41-1.03h12.04l3.72-11.56a1.492,1.492,0,0,1,1.41-1.03,1.471,1.471,0,0,1,1.4,1.03l3.72,11.56h12.05a1.458,1.458,0,0,1,1.4,1.03,1.481,1.481,0,0,1-.53,1.66l-9.75,7.15,3.73,11.55a1.511,1.511,0,0,1-.54,1.67,1.456,1.456,0,0,1-.87.28h0Zm-10.61-10.76a1.489,1.489,0,0,1,.87.29l6.93,5.08-2.65-8.22a1.511,1.511,0,0,1,.54-1.67l6.94-5.08h-8.58a1.48,1.48,0,0,1-1.4-1.03l-2.65-8.23-2.65,8.23a1.492,1.492,0,0,1-1.41,1.03h-8.57l6.94,5.08a1.491,1.491,0,0,1,.53,1.67l-2.65,8.22,6.94-5.08a1.466,1.466,0,0,1,.87-0.29h0Z" transform="translate(-1309.38 -1578.91)"/>
</svg>
