<svg xmlns="http://www.w3.org/2000/svg" width="34.38" height="34.53" viewBox="0 0 34.38 34.53">
  <defs>
    <style>
      .cls-1 {
        fill: #173243;
        fill-rule: evenodd;
      }
    </style>
  </defs>
  <path class="cls-1" d="M1984.17,1614.21a1.508,1.508,0,0,1-1.06.44,1.532,1.532,0,0,1-1.07-.44l-7.65-7.56a14.763,14.763,0,1,1,5.85-11.72,14.677,14.677,0,0,1-3.66,9.68l7.59,7.5A1.467,1.467,0,0,1,1984.17,1614.21Zm-18.92-31.12a11.846,11.846,0,1,0,11.98,11.85A11.935,11.935,0,0,0,1965.25,1583.09Zm-8.43,11.84h-1.5a9.887,9.887,0,0,1,9.93-9.82v1.49A8.391,8.391,0,0,0,1956.82,1594.93Z" transform="translate(-1950.25 -1580.13)"/>
</svg>
