<svg xmlns="http://www.w3.org/2000/svg" width="31.53" height="37.56" viewBox="0 0 31.53 37.56">
  <defs>
    <style>
      .cls-1 {
        fill: #fff;
        fill-rule: evenodd;
      }
    </style>
  </defs>
  <path class="cls-1" d="M2279.81,2455.16l-8.94,8.83a1.489,1.489,0,0,1-1.06.43h-15.4a1.477,1.477,0,0,1-1.49-1.47v-30.24a1.483,1.483,0,0,1,1.49-1.47h24.35a1.483,1.483,0,0,1,1.49,1.47v21.4A1.475,1.475,0,0,1,2279.81,2455.16Zm-9.25,4.97,5.34-5.28h-5.34v5.28Zm6.7-25.94H2255.9v27.29h13.17v-7.37a0.736,0.736,0,0,1,.74-0.73h7.45v-19.19Zm-18.56,11.23a0.738,0.738,0,0,1,.74-0.74h14.53a0.74,0.74,0,1,1,0,1.48h-14.53A0.738,0.738,0,0,1,2258.7,2445.42Zm15.27-2.82h-14.53a0.74,0.74,0,1,1,0-1.48h14.53A0.74,0.74,0,1,1,2273.97,2442.6Zm-5.77-3.56h-8.76a0.74,0.74,0,1,1,0-1.48h8.76A0.74,0.74,0,0,1,2268.2,2439.04Zm-8.76,9.2h6.09a0.74,0.74,0,1,1,0,1.48h-6.09A0.74,0.74,0,1,1,2259.44,2448.24Zm15.12-18.42h-22.85v29.64a1.49,1.49,0,0,1-2.98,0v-29.64a2.968,2.968,0,0,1,2.98-2.95h22.85A1.475,1.475,0,1,1,2274.56,2429.82Z" transform="translate(-2248.72 -2426.88)"/>
</svg>
