<svg xmlns="http://www.w3.org/2000/svg" width="34.22" height="35.97" viewBox="0 0 34.22 35.97">
  <defs>
    <style>
      .cls-1 {
        fill: #fff;
        fill-rule: evenodd;
      }
    </style>
  </defs>
  <path class="cls-1" d="M1975.49,2451.12c0,0.04.02,0.07,0.02,0.12v10.79a1.5,1.5,0,0,1-1.49,1.52h-31.24a1.507,1.507,0,0,1-1.49-1.52v-10.79a2.381,2.381,0,0,1,.05-0.26c0.02-.1.03-0.21,0.06-0.31a1.5,1.5,0,0,1,.25-0.4,0.53,0.53,0,0,0,.06-0.1l0.01-.01c0.01,0,.01,0,0.01-0.01l6-6.33a1.459,1.459,0,0,1,2.1-.04,1.549,1.549,0,0,1,.03,2.16l-3.56,3.77h6.15a1.509,1.509,0,0,1,1.49,1.53v2.15h8.93v-2.15a1.5,1.5,0,0,1,1.48-1.53h6.16l-3.57-3.77a1.558,1.558,0,0,1,.04-2.16,1.459,1.459,0,0,1,2.1.04l6.01,6.35a2.263,2.263,0,0,1,.13.2,1.415,1.415,0,0,1,.18.29A1.446,1.446,0,0,1,1975.49,2451.12Zm-12.62,5.32h-8.93a3.022,3.022,0,0,1-2.98-3.05v-0.63h-6.69v7.74h28.27v-7.74h-6.7v0.63A3.014,3.014,0,0,1,1962.87,2456.44Zm-3.59-9.69c-0.06.04-.13,0.06-0.19,0.1s-0.11.06-.17,0.09a1.548,1.548,0,0,1-.52.1,1.348,1.348,0,0,1-.52-0.11,0.8,0.8,0,0,1-.16-0.08,0.871,0.871,0,0,1-.19-0.1l-7.99-5.95a1.558,1.558,0,0,1-.33-2.13,1.464,1.464,0,0,1,2.08-.34l5.63,4.19v-13.39a1.486,1.486,0,1,1,2.97,0v13.39l5.63-4.19a1.453,1.453,0,0,1,2.07.34,1.547,1.547,0,0,1-.32,2.13Z" transform="translate(-1941.28 -2427.59)"/>
</svg>
