<svg xmlns="http://www.w3.org/2000/svg" width="34.38" height="34.53" viewBox="0 0 34.38 34.53">
  <defs>
    <style>
      .cls-1 {
        fill: #fff;
        fill-rule: evenodd;
      }
    </style>
  </defs>
  <path class="cls-1" d="M2574.75,2470.29a1.532,1.532,0,0,1-1.07.44,1.508,1.508,0,0,1-1.06-.44l-7.65-7.56a14.768,14.768,0,1,1,5.84-11.71,14.62,14.62,0,0,1-3.66,9.67l7.6,7.5A1.485,1.485,0,0,1,2574.75,2470.29Zm-18.92-31.12a11.846,11.846,0,1,0,11.98,11.85A11.929,11.929,0,0,0,2555.83,2439.17Zm-8.43,11.84h-1.51a9.9,9.9,0,0,1,9.94-9.82v1.49A8.391,8.391,0,0,0,2547.4,2451.01Z" transform="translate(-2540.84 -2436.19)"/>
</svg>
