<svg xmlns="http://www.w3.org/2000/svg" width="37.47" height="41.84" viewBox="0 0 37.47 41.84">
  <defs>
    <style>
      .cls-1 {
        fill: #173243;
        fill-rule: evenodd;
      }
    </style>
  </defs>
  <path class="cls-1" d="M2627.65,1617.97h-8.05a1.5,1.5,0,0,1-1.51-1.49v-24.01a1.5,1.5,0,0,1,1.51-1.5h8.05a1.507,1.507,0,0,1,1.51,1.5v24.01A1.5,1.5,0,0,1,2627.65,1617.97Zm-1.51-24h-5.03v21.01h5.03v-21.01Zm-7.65-3.7a1.509,1.509,0,0,1-2.13,0,1.491,1.491,0,0,1,0-2.12l3.19-3.17a22.623,22.623,0,0,0-20.5,18.21,1.5,1.5,0,0,1-1.77,1.18,1.485,1.485,0,0,1-1.19-1.75,25.622,25.622,0,0,1,23.6-20.64l-3.33-3.31a1.491,1.491,0,0,1,0-2.12,1.512,1.512,0,0,1,2.13.01l5.84,5.8a1.479,1.479,0,0,1,0,2.11Zm-15.75,19.93v6.28a1.5,1.5,0,0,1-1.5,1.49h-8.06a1.5,1.5,0,0,1-1.5-1.49v-6.28a1.5,1.5,0,0,1,1.5-1.5h8.06A1.5,1.5,0,0,1,2602.74,1610.2Zm-3.01,1.49h-5.04v3.29h5.04v-3.29Zm6.66-10.45h8.05a1.5,1.5,0,0,1,1.51,1.5v13.74a1.5,1.5,0,0,1-1.51,1.49h-8.05a1.5,1.5,0,0,1-1.51-1.49v-13.74A1.507,1.507,0,0,1,2606.39,1601.24Zm1.51,13.74h5.03v-10.74h-5.03v10.74Z" transform="translate(-2591.69 -1576.13)"/>
</svg>
