<?xml version="1.0" encoding="utf-8"?>
<!-- Generator: Adobe Illustrator 20.1.0, SVG Export Plug-In . SVG Version: 6.00 Build 0)  -->
<svg version="1.1" id="Camada_1" xmlns="http://www.w3.org/2000/svg" xmlns:xlink="http://www.w3.org/1999/xlink" x="0px" y="0px"
	 viewBox="0 0 182 44" style="enable-background:new 0 0 182 44;" xml:space="preserve">
<style type="text/css">
	.st0{fill:#009BDB;}
	.st1{fill:#223644;}
	.st2{filter:url(#Adobe_OpacityMaskFilter);}
	.st3{fill:url(#SVGID_2_);}
	.st4{mask:url(#SVGID_1_);fill:#004774;}
	.st5{filter:url(#Adobe_OpacityMaskFilter_1_);}
	.st6{fill:url(#SVGID_4_);}
	.st7{mask:url(#SVGID_3_);fill:#004774;}
	.st8{filter:url(#Adobe_OpacityMaskFilter_2_);}
	.st9{fill:url(#SVGID_6_);}
	.st10{mask:url(#SVGID_5_);fill:#004774;}
	.st11{filter:url(#Adobe_OpacityMaskFilter_3_);}
	.st12{fill:url(#SVGID_8_);}
	.st13{mask:url(#SVGID_7_);fill:#004774;}
</style>
<g>
	<path class="st0" d="M147.9,2.8h10.7V26c0,3.4,0.5,5.9,1.5,7.4c1,1.5,2.6,2.3,4.9,2.3c2.3,0,4-0.8,5.2-2.4c1.2-1.6,1.7-4,1.7-7.2
		V2.8H182V26c0,5.9-1.4,10.3-4.3,13.2c-2.8,2.9-7.1,4.4-12.8,4.4c-5.6,0-9.9-1.5-12.7-4.4c-2.9-3-4.3-7.4-4.3-13.2V2.8z"/>
	<g>
		<g>
			<path class="st1" d="M14.7,4h12.4l14.6,38.6h-11L28,34.5H13.1l-2.9,8.2H0L14.7,4z M20.7,12.6l-5,14.5h9.8L20.7,12.6z"/>
			<path class="st1" d="M69.7,4.4l-0.8,8c-1.6-0.7-3.1-1.2-4.5-1.5c-1.5-0.3-2.9-0.5-4.2-0.5c-2.1,0-3.7,0.3-4.9,1
				c-1.2,0.7-1.8,1.6-1.8,2.7c0,0.8,0.3,1.5,0.9,2.1c0.6,0.6,1.5,1.1,2.7,1.5c0.4,0.1,1,0.3,1.7,0.5c4.4,1.4,7.4,2.7,8.8,3.8
				c1.4,1.1,2.4,2.3,3,3.6c0.6,1.4,1,2.9,1,4.7c0,4.3-1.4,7.5-4.2,9.7c-2.8,2.2-6.9,3.4-12.3,3.4c-1.9,0-3.9-0.1-5.8-0.4
				c-1.9-0.3-3.9-0.7-5.8-1.2l0.9-8.6c1.8,0.8,3.6,1.4,5.3,1.9c1.7,0.4,3.3,0.6,4.9,0.6c2,0,3.6-0.4,4.8-1.1
				c1.2-0.8,1.8-1.8,1.8-3.1c0-1.6-1.9-3.1-5.7-4.4c-0.9-0.3-1.6-0.6-2.1-0.7c-3.7-1.3-6.3-2.9-7.9-4.6c-1.6-1.7-2.4-4-2.4-6.7
				c0-3.9,1.4-6.9,4.2-8.9c2.8-2.1,6.8-3.1,11.9-3.1c1.9,0,3.7,0.1,5.5,0.3C66.3,3.6,68,4,69.7,4.4z"/>
			<path class="st1" d="M77.4,4h10.3v16.7L99.7,4h11.5L97,21.8l15.7,20.9H99.9L87.7,24.7v17.9H77.4V4z"/>
		</g>
	</g>
	<defs>
		<filter id="Adobe_OpacityMaskFilter" filterUnits="userSpaceOnUse" x="147.9" y="2.8" width="34.1" height="40.9">
			<feColorMatrix  type="matrix" values="1 0 0 0 0  0 1 0 0 0  0 0 1 0 0  0 0 0 1 0"/>
		</filter>
	</defs>
	<mask maskUnits="userSpaceOnUse" x="147.9" y="2.8" width="34.1" height="40.9" id="SVGID_1_">
		<g class="st2">
			
				<linearGradient id="SVGID_2_" gradientUnits="userSpaceOnUse" x1="-1798.3289" y1="46.8683" x2="-1798.3289" y2="-3.0801" gradientTransform="matrix(-1 0 0 1 -1625.7714 0)">
				<stop  offset="0" style="stop-color:#FFFFFF"/>
				<stop  offset="0.3836" style="stop-color:#99989D"/>
				<stop  offset="0.6703" style="stop-color:#4D4C4E"/>
				<stop  offset="0.7989" style="stop-color:#000000"/>
			</linearGradient>
			<polygon class="st3" points="158.4,46.9 186.7,46.9 186.7,-3.1 158.4,-3.1 			"/>
		</g>
	</mask>
	<path class="st4" d="M147.9,2.8h10.7V26c0,3.4,0.5,5.9,1.5,7.4c1,1.5,2.6,2.3,4.9,2.3c2.3,0,4-0.8,5.2-2.4c1.2-1.6,1.7-4,1.7-7.2
		V2.8H182V26c0,5.9-1.4,10.3-4.3,13.2c-2.8,2.9-7.1,4.4-12.8,4.4c-5.6,0-9.9-1.5-12.7-4.4c-2.9-3-4.3-7.4-4.3-13.2V2.8z"/>
	<path class="st0" d="M147.9,2.8h10.7V26c0,22,16.4,16,19.2,13.2c-2.8,2.9-7.1,4.4-12.8,4.4c-5.6,0-9.9-1.5-12.7-4.4
		c-2.9-3-4.3-7.4-4.3-13.2V2.8z"/>
	<defs>
		<filter id="Adobe_OpacityMaskFilter_1_" filterUnits="userSpaceOnUse" x="147.9" y="2.8" width="29.8" height="40.9">
			<feColorMatrix  type="matrix" values="1 0 0 0 0  0 1 0 0 0  0 0 1 0 0  0 0 0 1 0"/>
		</filter>
	</defs>
	<mask maskUnits="userSpaceOnUse" x="147.9" y="2.8" width="29.8" height="40.9" id="SVGID_3_">
		<g class="st5">
			<linearGradient id="SVGID_4_" gradientUnits="userSpaceOnUse" x1="164.4385" y1="-1.8529" x2="164.4385" y2="55.2135">
				<stop  offset="0" style="stop-color:#FFFFFF"/>
				<stop  offset="3.667856e-02" style="stop-color:#DEDFE3"/>
				<stop  offset="8.361726e-02" style="stop-color:#B5B5BB"/>
				<stop  offset="0.1331" style="stop-color:#949297"/>
				<stop  offset="0.1843" style="stop-color:#76767A"/>
				<stop  offset="0.2375" style="stop-color:#5D5C60"/>
				<stop  offset="0.2935" style="stop-color:#474647"/>
				<stop  offset="0.3536" style="stop-color:#2C2B2B"/>
				<stop  offset="0.4204" style="stop-color:#151515"/>
				<stop  offset="0.5079" style="stop-color:#000000"/>
			</linearGradient>
			<rect x="145.2" y="-1.9" class="st6" width="38.5" height="57.1"/>
		</g>
	</mask>
	<path class="st7" d="M147.9,2.8h10.7V26c0,22,16.4,16,19.2,13.2c-2.8,2.9-7.1,4.4-12.8,4.4c-5.6,0-9.9-1.5-12.7-4.4
		c-2.9-3-4.3-7.4-4.3-13.2V2.8z"/>
	<path class="st0" d="M123.3,8.9c1.7-0.5,3.3-0.7,4.8-0.7c1.7,0,3.1,0.5,4.2,1.4c1,1,1.6,2.2,1.6,3.8c0,2.1-1.3,4.7-4,7.8
		c-2.7,3.1-7.1,7.2-13.4,12.3h12.9c5.2-4.3,9-8.2,11.4-11.6c2.5-3.5,3.7-6.7,3.7-9.7c0-3.5-1.3-6.3-3.8-8.5
		c-2.5-2.2-5.8-3.3-9.9-3.3c-2.2,0-4.5,0.2-6.7,0.6c-2.2,0.4-4.4,1-6.6,1.9l0.3,8.2C119.8,10.1,121.6,9.4,123.3,8.9z"/>
	<rect x="116.4" y="34.5" class="st1" width="12.9" height="9"/>
	<rect x="130.6" y="34.5" class="st0" width="14.4" height="9"/>
	<defs>
		<filter id="Adobe_OpacityMaskFilter_2_" filterUnits="userSpaceOnUse" x="130.6" y="34.5" width="9" height="9.1">
			<feColorMatrix  type="matrix" values="1 0 0 0 0  0 1 0 0 0  0 0 1 0 0  0 0 0 1 0"/>
		</filter>
	</defs>
	<mask maskUnits="userSpaceOnUse" x="130.6" y="34.5" width="9" height="9.1" id="SVGID_5_">
		<g class="st8">
			<linearGradient id="SVGID_6_" gradientUnits="userSpaceOnUse" x1="129.1093" y1="40.5996" x2="142.4027" y2="40.5996">
				<stop  offset="0" style="stop-color:#FFFFFF"/>
				<stop  offset="0.7302" style="stop-color:#000000"/>
			</linearGradient>
			<rect x="129.1" y="31.3" class="st9" width="13.3" height="18.7"/>
		</g>
	</mask>
	<rect x="130.6" y="34.5" class="st10" width="9" height="9.1"/>
	<defs>
		<filter id="Adobe_OpacityMaskFilter_3_" filterUnits="userSpaceOnUse" x="116.5" y="0.4" width="28" height="33.1">
			<feColorMatrix  type="matrix" values="1 0 0 0 0  0 1 0 0 0  0 0 1 0 0  0 0 0 1 0"/>
		</filter>
	</defs>
	<mask maskUnits="userSpaceOnUse" x="116.5" y="0.4" width="28" height="33.1" id="SVGID_7_">
		<g class="st11">
			
				<linearGradient id="SVGID_8_" gradientUnits="userSpaceOnUse" x1="-172.8877" y1="-1784.783" x2="-136.2548" y2="-1784.783" gradientTransform="matrix(-5.376820e-03 1 -1 -5.373868e-03 -1650.6975 162.6312)">
				<stop  offset="0" style="stop-color:#FFFFFF"/>
				<stop  offset="0.3836" style="stop-color:#99989D"/>
				<stop  offset="0.6703" style="stop-color:#4D4C4E"/>
				<stop  offset="0.7989" style="stop-color:#000000"/>
			</linearGradient>
			<polygon class="st12" points="115.8,35.9 116,-0.8 154,-0.6 153.8,36.1 			"/>
		</g>
	</mask>
	<path class="st13" d="M129.4,33.5c5.2-4.3,8.9-8.2,11.4-11.5c2.5-3.5,3.7-6.7,3.7-9.7c0-3.5-1.3-6.3-3.8-8.5
		c-2.5-2.2-5.8-3.3-9.9-3.3c8.5,8.5,2.4,17.6-0.9,20.8c-2.9,2.9-7.1,7.2-13.4,12.3H129.4z"/>
</g>
</svg>
